<svg width="15" height="14" viewBox="0 0 15 14" fill="none" xmlns="http://www.w3.org/2000/svg">
<path d="M2.55086 0.636155C2.16033 0.245631 1.52717 0.24563 1.13664 0.636155C0.746119 1.02668 0.746119 1.65984 1.13664 2.05037L6.08639 7.00012L1.13664 11.9499C0.746119 12.3404 0.746119 12.9736 1.13664 13.3641C1.52717 13.7546 2.16033 13.7546 2.55086 13.3641L7.5006 8.41433L12.4504 13.3641C12.8409 13.7546 13.474 13.7546 13.8646 13.3641C14.2551 12.9736 14.2551 12.3404 13.8646 11.9499L8.91482 7.00012L13.8646 2.05037C14.2551 1.65984 14.2551 1.02668 13.8646 0.636155C13.474 0.245631 12.8409 0.245631 12.4504 0.636155L7.5006 5.5859L2.55086 0.636155Z" fill="black"/>
</svg>
